<?xml version="1.0" encoding="utf-8"?>
<!-- Generator: Adobe Illustrator 19.0.0, SVG Export Plug-In . SVG Version: 6.00 Build 0)  -->
<svg version="1.1" id="图层_1" xmlns="http://www.w3.org/2000/svg" xmlns:xlink="http://www.w3.org/1999/xlink" x="0px" y="0px"
	 viewBox="0 0 33 33" style="enable-background:new 0 0 33 33;" xml:space="preserve">
<style type="text/css">
	.st0{fill:#989898;}
</style>
<g id="XMLID_2009_">
	<path id="XMLID_2010_" class="st0" d="M30.7,2.9H2.3c-0.8,0-1.5,0.7-1.5,1.5v24.5c0,0.8,0.7,1.5,1.5,1.5h28.4
		c0.8,0,1.5-0.7,1.5-1.5V4.4C32.2,3.6,31.5,2.9,30.7,2.9L30.7,2.9z M30.7,8.8v5.7h-8.5V8.8h7H30.7L30.7,8.8z M12.3,21.7V16h8.5v5.7
		H12.3L12.3,21.7z M20.7,23.2v5.7h-8.5v-5.7H20.7L20.7,23.2z M10.8,21.7H2.3V16h8.5V21.7L10.8,21.7z M20.7,8.8v5.7h-8.5V8.8H20.7
		L20.7,8.8z M22.2,16h8.5v5.7h-8.5V16L22.2,16z M12.6,4.4c0.8,0,1.5,0.7,1.5,1.5c0,0.8-0.7,1.5-1.5,1.5c-0.8,0-1.5-0.7-1.5-1.5
		C11.1,5.1,11.8,4.4,12.6,4.4L12.6,4.4z M8.2,4.4c0.8,0,1.5,0.7,1.5,1.5c0,0.8-0.7,1.5-1.5,1.5c-0.8,0-1.5-0.7-1.5-1.5
		C6.7,5.1,7.4,4.4,8.2,4.4L8.2,4.4z M3.8,4.4c0.8,0,1.5,0.7,1.5,1.5c0,0.8-0.7,1.5-1.5,1.5C3,7.3,2.3,6.7,2.3,5.9
		C2.3,5.1,3,4.4,3.8,4.4L3.8,4.4z M3.8,8.8h7v5.7H2.3V8.8H3.8L3.8,8.8z M2.3,23.2h8.5v5.7H2.3V23.2L2.3,23.2z M22.2,28.9v-5.7h8.5
		v5.7H22.2L22.2,28.9z M22.2,28.9"/>
</g>
</svg>
